<?xml version="1.0" encoding="UTF-8" standalone="no"?>
<svg xmlns="http://www.w3.org/2000/svg" viewBox="0 0 2265 2655" height="2655px" width="2265px" id="bee_e">
  <g id="bee_e_g" transform="matrix(3.202,0,0,3.229,-840.4,10.05)">
    <g id="bee">
      <g id="bee_bg">
        <path d="M 662,217 C 669,209 672,199 677,189 704,136 754,93 816,129 859,154 887,202 891,251 898,328 831,348 762,348 744,348 745,344 723,352 709,353 717,359 714,360 L 683,316 C 671,323 655,338 640,347 609,367 565,385 529,394 505,400 492,399 470,402 477,439 483,463 485,474 486,477 477,486 476,483 476,480 472,462 469,459 458,463 450,473 444,480 L 421,502 C 407,514 380,533 355,533 307,533 273,465 265,415 L 265,407 C 268,374 271,337 306,316 335,299 385,300 411,311 462,330 447,349 480,295 428,312 396,253 404,223 405,220 405,213 409,219 412,238 405,248 422,269 432,281 449,291 465,290 496,289 500,232 505,208 508,199 505,195 504,191 505,194 507,203 508,205 511,212 509,207 512,211 L 516,215 C 534,245 553,260 578,270 635,294 686,188 620,143 577,114 549,137 531,143 L 530,142 C 532,133 575,111 618,134 643,147 654,166 660,193 662,203 660,209 661,218 z" id="bee_chest" style="fill:#221f20" />
      </g>
      <g id="bee_head">
        <path d="M 531,141 532,142 526,149 C 508,169 505,183 518,214 L 514,210 C 511,205 513,211 510,204 509,202 507,193 506,190 506,194 510,199 507,207 502,178 484,169 457,175 445,178 435,183 427,191 416,201 413,211 410,221 L 406,218 C 406,193 435,173 459,170 471,168 475,171 485,171 450,63 332,40 332,90 332,171 410,136 383,103 378,97 372,96 365,95 363,107 371,106 358,112 355,100 354,92 365,89 366,89 370,88 372,88 378,89 378,89 383,93 390,98 396,106 397,119 399,145 336,173 327,102 324,80 324,67 351,60 369,56 389,59 403,65 414,70 434,83 443,93 468,119 487,154 506,185 L 509,175 C 512,158 483,139 479,80 477,48 494,-1 520,0 532,1 591,29 567,67 543,104 507,74 513,45 517,27 533,35 537,46 524,47 533,41 519,44 517,57 522,72 535,75 549,78 562,63 564,54 568,39 557,30 547,21 505,-19 484,38 485,72 486,120 505,135 514,157 523,151 520,148 533,141 z" id="bee_horns" style="fill:#2b2a29" />
        <path d="M 506,208 C 501,233 497,289 466,290 450,291 433,281 423,269 405,248 412,235 409,217 418,208 416,202 426,192 434,184 444,179 456,176 483,170 501,179 506,208 z" id="bee_eye_l" style="fill:#fdfdfd" />
        <path d="M 467,184 C 476,188 487,172 497,196 512,232 456,253 444,216 439,202 450,176 467,184 z" id="bee_zrachok_l" style="fill:#221f20" />
        <path d="M 518,214 C 505,184 509,169 526,149 L 532,142 C 551,136 579,113 621,142 687,187 636,293 579,269 555,259 536,244 517,214 z" id="bee_eye_r" style="fill:#fdfdfd" />
        <path d="M 546,152 C 594,155 584,216 545,217 503,218 502,149 546,152 z" id="bee_zrachok_r" style="fill:#221f20" />
        <path d="M 525,234 C 512,238 513,240 504,247 504,236 507,224 510,212 515,216 522,229 525,235 z" id="bee_bridge" style="fill:#fdfdfd" />
        <path d="M 547,257 C 533,268 518,275 499,278 499,269 502,268 506,260 517,239 528,229 547,257 z" id="bee_nose" style="fill:#fec30a" />
        <path d="M 544,304 C 535,307 519,304 506,292 498,284 509,290 517,288 543,284 548,269 557,266 562,265 553,301 544,304 z" id="bee_mouth" style="fill:#fefefe" />
      </g>
      <g id="bee_wing_l">
        <path d="M 463,414 C 466,429 464,439 465,448 442,465 385,528 365,529 306,527 278,451 277,413 274,379 286,352 309,334 336,313 375,297 439,332 459,366 453,374 463,414 z" id="bee_wing_l_bg" style="fill:#fefefe" />
        <path d="M 305,407 C 287,324 353,322 414,354 L 436,367 C 409,357 393,350 364,349 317,347 303,358 305,406 z" id="bee_wing_l_u" style="fill:#b2b3b3" />
        <path d="M 448,431 C 424,462 366,541 327,478 L 315,453 306,419 320,451 C 358,520 404,473 448,432 z" id="bee_wing_l_b" style="fill:#b2b3b3" />
      </g>
      <g id="bee_body">
        <path d="M 578,276 C 590,276 590,281 608,277 626,273 626,268 638,261 644,267 643,264 649,270 643,286 592,319 571,330 529,351 506,354 462,359 463,347 479,314 485,303 489,295 486,299 491,295 505,302 521,319 542,319 570,319 572,291 578,276 z" id="bee_neck" style="fill:#fec30a" />
        <path d="M 656,403 C 641,415 624,426 606,436 584,448 513,473 485,479 L 471,402 C 493,399 506,400 530,394 566,386 610,367 641,347 655,338 672,323 684,316 L 711,353 C 693,368 677,388 657,403 z" id="bee_mid" style="fill:#fec30a" />
        <path d="M 755,403 C 760,421 747,433 731,458 L 705,499 C 700,507 696,512 692,520 692,520 691,521 691,521 685,533 695,511 690,524 689,526 688,529 688,530 687,534 686,537 686,542 686,558 690,556 694,570 677,565 659,548 641,547 L 577,542 C 541,538 506,542 489,522 482,514 480,493 478,483 475,465 551,465 607,435 625,425 641,414 657,402 667,394 713,347 720,343 734,361 748,373 756,401 z" id="bee_tail" style="fill:#221f20" />
        <path d="M 562,528 C 607,508 634,508 685,474 696,467 708,456 718,450 L 664,528 C 652,541 629,534 612,533 599,532 572,531 561,528 z" id="bee_ass" style="fill:#fec30a" />
      </g>
      <g id="bee_wing_r">
        <path d="M 814,138 C 851,159 882,207 886,249 892,315 836,344 777,343 750,341 730,341 719,343 704,325 692,313 663,257 670,190 751,82 814,137 z" id="bee_wing_r_bg" style="fill:#fefefe" />
        <path d="M 699,227 C 712,185 738,113 797,143 824,157 848,189 851,220 846,199 831,180 813,167 755,124 722,178 699,228 z" id="bee_wing_r_u" style="fill:#b2b3b3" />
        <path d="M 796,292 C 822,283 855,268 830,237 L 831,242 C 834,259 806,282 796,292 z" id="bee_wing_r_m" style="fill:#b2b3b3" />
        <path d="M 741,318 C 777,327 806,323 839,305 849,300 848,300 861,289 824,334 795,344 742,318 z" id="bee_wing_r_b" style="fill:#b2b3b3" />
      </g>
    </g>
    <path d="M 758,762 744,776 C 765,798 772,802 796,812 L 803,794 C 781,785 774,781 758,763 z M 750,674 730,670 C 724,699 724,707 726,732 L 746,730 C 744,707 744,701 749,673 z M 797,593 782,580 C 766,598 757,611 746,630 L 763,640 C 774,620 782,610 796,593 z M 879,558 878,538 C 852,539 844,540 817,553 L 826,571 C 847,561 853,559 879,558 z M 947,606 965,598 C 953,571 947,566 922,551 L 912,568 C 931,579 936,581 947,606 z M 911,682 924,697 C 944,679 950,671 962,647 L 944,639 C 934,661 927,668 911,683 z M 825,692 820,711 C 849,719 857,719 883,715 L 880,695 C 857,698 852,698 825,691 z M 751,635 736,648 C 752,665 761,675 781,690 L 793,674 C 775,660 765,650 751,634 z M 709,575 692,586 C 698,596 705,606 711,616 L 728,605 C 722,595 715,585 709,575 z M 900,813 897,793 C 876,796 862,798 839,798 L 839,818 C 861,818 879,816 900,813 z" id="bukva_e" style="fill:#2b2a29;fill-rule:nonzero" />
  </g>
</svg>
