<?xml version="1.0" encoding="UTF-8" standalone="no"?>
<!-- Created with Inkscape (http://www.inkscape.org/) -->

<svg
   xmlns:dc="http://purl.org/dc/elements/1.1/"
   xmlns:cc="http://creativecommons.org/ns#"
   xmlns:rdf="http://www.w3.org/1999/02/22-rdf-syntax-ns#"
   xmlns:svg="http://www.w3.org/2000/svg"
   xmlns="http://www.w3.org/2000/svg"
   xmlns:sodipodi="http://sodipodi.sourceforge.net/DTD/sodipodi-0.dtd"
   xmlns:inkscape="http://www.inkscape.org/namespaces/inkscape"
   width="888.4"
   height="1024"
   id="svg3040"
   version="1.1"
   inkscape:version="0.48.5 r10040"
   sodipodi:docname="Новый документ 3">
  <defs
     id="defs3042" />
  <sodipodi:namedview
     id="base"
     pagecolor="#ffffff"
     bordercolor="#666666"
     borderopacity="1.0"
     inkscape:pageopacity="0.0"
     inkscape:pageshadow="2"
     inkscape:zoom="0.3"
     inkscape:cx="937.6"
     inkscape:cy="508.9"
     inkscape:document-units="px"
     inkscape:current-layer="layer1"
     showgrid="false"
     fit-margin-top="0"
     fit-margin-left="0"
     fit-margin-right="0"
     fit-margin-bottom="0"
     inkscape:window-width="1920"
     inkscape:window-height="986"
     inkscape:window-x="-7"
     inkscape:window-y="-4"
     inkscape:window-maximized="1" />
  <metadata
     id="metadata3045">
    <rdf:RDF>
      <cc:Work
         rdf:about="">
        <dc:format>image/svg+xml</dc:format>
        <dc:type
           rdf:resource="http://purl.org/dc/dcmitype/StillImage" />
        <dc:title></dc:title>
      </cc:Work>
    </rdf:RDF>
  </metadata>
  <g
     id="layer1"
     inkscape:label="Layer 1"
     inkscape:groupmode="layer"
     transform="translate(-22.44,-25.19)">
    <path
       d="M 3172,3300 3176,3186 3071,3247 3172,3300 3172,3300 z M 3335,3017 3239,2957 3239,3078 3335,3017 3335,3017 z M 3172,2734 3071,2787 3176,2848 3172,2734 3172,2734 z M 2845,2734 2841,2848 2945,2787 2845,2734 2845,2734 z M 2681,3017 2778,3078 2778,2957 2681,3017 2681,3017 z M 2845,3300 2945,3247 2841,3186 2845,3300 2845,3300 z M 3183,3981 3223,3960 3220,3906 3029,3822 3193,3937 3194,3945 3028,3833 3183,3981 3183,3981 z M 3132,4091 3157,4074 3151,4038 3019,3997 3141,4062 3141,4070 3018,4003 3132,4091 3132,4091 z M 3092,3808 3132,3787 3129,3733 3036,3704 3112,3762 3108,3778 3031,3720 3092,3808 3092,3808 z M 3085,3711 3030,3678 3086,3691 3084,3681 3029,3668 3086,3661 3101,3689 3085,3711 3085,3711 z M 3044,3941 3028,3871 3062,3927 3069,3918 3035,3862 3086,3903 3075,3938 3044,3941 3044,3941 z M 2998,3400 2950,3479 2892,3474 2874,3526 2913,3540 2943,3508 2965,3510 2968,3526 2935,3547 2901,3551 2858,3596 2742,3670 2641,3701 2619,3754 2679,3769 2752,3696 2873,3626 2903,3637 2958,3577 2987,3561 2993,3992 2966,4158 3005,4216 2999,3542 2671,3732 2666,3726 2997,3526 2998,3400 2998,3400 z M 3019,3400 3067,3479 3125,3474 3143,3526 3104,3540 3074,3508 3052,3510 3049,3526 3085,3549 3130,3558 3166,3601 3275,3670 3376,3701 3398,3754 3338,3769 3265,3696 3150,3630 3117,3640 3060,3578 3030,3561 3024,3992 3051,4163 3012,4216 3018,3542 3345,3732 3351,3726 3019,3526 3019,3400 3019,3400 z M 3208,3838 3209,3668 3236,3830 3245,3825 3216,3662 3271,3818 3242,3849 3208,3838 3208,3838 z M 3127,3720 3160,3646 3153,3718 3164,3715 3172,3642 3190,3713 3157,3737 3127,3720 3127,3720 z M 3063,3830 3028,3790 3069,3814 3070,3806 3029,3782 3077,3791 3081,3817 3063,3830 3063,3830 z M 2829,3981 2789,3960 2792,3906 2983,3822 2819,3937 2818,3945 2984,3833 2829,3981 2829,3981 z M 2880,4091 2855,4074 2861,4038 2993,3997 2871,4062 2871,4070 2994,4003 2880,4091 2880,4091 z M 2920,3808 2880,3787 2883,3733 2976,3704 2900,3762 2904,3778 2981,3720 2920,3808 2920,3808 z M 2927,3711 2911,3689 2926,3661 2984,3668 2928,3681 2926,3691 2982,3678 2927,3711 2927,3711 z M 2968,3941 2937,3938 2926,3903 2977,3862 2944,3918 2950,3927 2984,3871 2968,3941 2968,3941 z M 2804,3838 2770,3849 2741,3818 2796,3662 2767,3825 2776,3830 2803,3668 2804,3838 2804,3838 z M 2885,3720 2855,3737 2822,3713 2840,3642 2848,3715 2859,3718 2852,3646 2885,3720 2885,3720 z M 2949,3830 2931,3817 2935,3791 2983,3782 2942,3806 2943,3814 2984,3790 2949,3830 2949,3830 z M 3355,3660 3367,3636 3347,3612 3227,3637 3349,3632 3352,3639 3231,3642 3355,3660 3355,3660 z M 3241,3544 3189,3606 3251,3567 3253,3579 3191,3618 3263,3603 3269,3562 3241,3544 3241,3544 z M 3211,3563 3204,3537 3172,3531 3143,3581 3187,3545 3196,3549 3152,3585 3211,3563 3211,3563 z M 2775,3544 2827,3606 2765,3567 2763,3579 2825,3618 2753,3603 2747,3562 2775,3544 2775,3544 z M 2805,3563 2812,3537 2844,3531 2873,3581 2829,3545 2820,3549 2864,3585 2805,3563 2805,3563 z M 2664,3660 2652,3636 2672,3612 2791,3637 2669,3632 2667,3639 2788,3642 2664,3660 2664,3660 z M 3930,3348 3932,3302 3884,3278 3715,3401 3897,3316 3905,3320 3725,3408 3930,3348 3930,3348 z M 4000,3447 3867,3501 3986,3428 3980,3424 3862,3498 3964,3403 3998,3416 4000,3447 4000,3447 z M 3735,3340 3628,3349 3717,3311 3706,3300 3616,3337 3688,3271 3736,3295 3735,3340 3735,3340 z M 3647,3298 3637,3273 3605,3272 3582,3325 3621,3283 3630,3286 3592,3329 3647,3298 3647,3298 z M 3827,3448 3758,3427 3823,3425 3819,3415 3753,3416 3815,3393 3839,3420 3827,3448 3827,3448 z M 3335,3217 3379,3299 3346,3346 3382,3388 3413,3361 3401,3319 3413,3301 3429,3306 3431,3346 3417,3376 3434,3437 3440,3574 3417,3677 3452,3722 3495,3678 3468,3578 3468,3439 3493,3418 3469,3340 3469,3307 3845,3518 3975,3624 4045,3620 3458,3288 3459,3666 3451,3668 3444,3281 3335,3217 3335,3217 z M 3345,3200 3455,3262 3794,3075 3796,3082 3468,3271 4049,3613 4022,3553 3861,3491 3490,3270 3520,3253 3602,3234 3609,3201 3724,3134 3824,3107 3841,3048 3785,3041 3707,3112 3592,3172 3537,3182 3507,3217 3470,3236 3457,3226 3466,3206 3509,3195 3516,3155 3462,3144 3438,3197 3345,3200 3345,3200 z M 3819,3255 3672,3168 3826,3226 3826,3216 3671,3159 3833,3190 3846,3231 3819,3255 3819,3255 z M 3676,3265 3628,3200 3688,3242 3690,3231 3631,3188 3702,3208 3706,3248 3676,3265 3676,3265 z M 3739,3376 3688,3386 3729,3363 3723,3358 3681,3381 3712,3344 3737,3354 3739,3376 3739,3376 z M 3754,3654 3703,3446 3717,3646 3710,3641 3692,3441 3670,3648 3715,3678 3754,3654 3754,3654 z M 3874,3665 3847,3678 3818,3655 3849,3520 3844,3659 3851,3662 3855,3522 3874,3665 3874,3665 z M 3649,3489 3611,3513 3565,3483 3587,3388 3599,3484 3615,3488 3603,3392 3649,3489 3649,3489 z M 3569,3434 3542,3437 3525,3410 3560,3364 3543,3419 3550,3425 3568,3370 3569,3434 3569,3434 z M 3788,3514 3770,3539 3735,3531 3724,3467 3756,3524 3767,3522 3736,3465 3788,3514 3788,3514 z M 3617,3604 3610,3639 3568,3649 3460,3523 3587,3630 3596,3624 3469,3520 3617,3604 3617,3604 z M 3555,3475 3555,3509 3518,3526 3465,3475 3532,3505 3541,3497 3475,3466 3555,3475 3555,3475 z M 3682,3474 3662,3484 3642,3467 3658,3422 3658,3469 3666,3472 3665,3425 3682,3474 3682,3474 z M 3738,3038 3661,3137 3718,3030 3711,3029 3654,3137 3692,3021 3724,3016 3738,3038 3738,3038 z M 3580,3079 3611,3064 3643,3089 3620,3159 3617,3086 3606,3082 3608,3155 3580,3079 3580,3079 z M 3582,3114 3572,3177 3563,3121 3555,3126 3564,3182 3535,3132 3556,3107 3582,3114 3582,3114 z M 3348,3482 3350,3516 3388,3531 3437,3476 3372,3510 3363,3503 3427,3468 3348,3482 3348,3482 z M 3379,3465 3429,3426 3375,3446 3375,3436 3429,3416 3371,3416 3360,3447 3379,3465 3379,3465 z M 3393,3637 3440,3521 3376,3624 3371,3618 3436,3515 3355,3606 3366,3635 3393,3637 3393,3637 z M 3756,2384 3717,2360 3672,2390 3694,2596 3712,2397 3719,2392 3705,2591 3756,2384 3756,2384 z M 3876,2373 3849,2360 3821,2383 3851,2518 3846,2379 3853,2376 3857,2516 3876,2373 3876,2373 z M 3651,2549 3613,2525 3568,2555 3589,2650 3602,2554 3617,2550 3605,2646 3651,2549 3651,2549 z M 3571,2604 3570,2667 3553,2613 3545,2619 3562,2674 3527,2628 3544,2600 3571,2604 3571,2604 z M 3791,2523 3738,2573 3769,2515 3758,2514 3726,2571 3737,2506 3772,2499 3791,2523 3791,2523 z M 3345,2834 3454,2772 3793,2959 3795,2951 3468,2763 4048,2421 4017,2483 3861,2543 3489,2763 3518,2780 3598,2798 3603,2829 3724,2899 3823,2926 3841,2986 3784,2993 3707,2921 3585,2858 3524,2843 3504,2816 3469,2797 3456,2808 3466,2828 3509,2838 3516,2878 3462,2889 3438,2836 3345,2834 3345,2834 z M 3335,2816 3379,2735 3345,2688 3382,2646 3413,2672 3401,2715 3413,2733 3429,2727 3431,2685 3416,2641 3435,2589 3440,2459 3417,2356 3451,2311 3494,2356 3468,2456 3468,2588 3493,2611 3468,2692 3468,2727 3845,2515 3979,2407 4044,2414 3458,2746 3458,2368 3451,2366 3443,2753 3335,2816 3335,2816 z M 3619,2434 3612,2399 3570,2389 3462,2514 3589,2408 3598,2413 3471,2518 3619,2434 3619,2434 z M 3557,2563 3557,2529 3520,2511 3468,2563 3534,2533 3543,2541 3477,2572 3557,2563 3557,2563 z M 3684,2563 3667,2613 3668,2566 3660,2569 3660,2616 3644,2571 3664,2554 3684,2563 3684,2563 z M 3933,2690 3727,2630 3907,2718 3899,2721 3718,2637 3886,2760 3934,2735 3933,2690 3933,2690 z M 4002,2591 3869,2537 3988,2609 3982,2614 3864,2540 3966,2634 4000,2622 4002,2591 4002,2591 z M 3737,2698 3630,2689 3719,2727 3708,2738 3619,2701 3690,2767 3739,2743 3737,2698 3737,2698 z M 3649,2740 3594,2709 3632,2751 3624,2755 3584,2713 3607,2766 3639,2765 3649,2740 3649,2740 z M 3829,2590 3841,2618 3817,2645 3756,2622 3821,2623 3825,2613 3760,2611 3829,2590 3829,2590 z M 3821,2783 3674,2869 3828,2811 3828,2822 3673,2879 3835,2848 3848,2807 3821,2783 3821,2783 z M 3678,2772 3630,2838 3690,2795 3693,2807 3633,2850 3704,2830 3708,2789 3678,2772 3678,2772 z M 3741,2662 3690,2652 3731,2675 3725,2680 3683,2657 3714,2693 3739,2684 3741,2662 3741,2662 z M 3392,2395 3365,2397 3354,2426 3435,2518 3370,2414 3375,2408 3438,2512 3392,2395 3392,2395 z M 3348,2552 3427,2566 3363,2532 3373,2524 3437,2558 3388,2503 3350,2518 3348,2552 3348,2552 z M 3379,2569 3360,2588 3371,2618 3429,2619 3375,2598 3375,2589 3429,2609 3379,2569 3379,2569 z M 3580,2955 3611,2971 3643,2945 3620,2875 3617,2948 3606,2952 3608,2880 3580,2955 3580,2955 z M 3582,2920 3572,2857 3563,2914 3555,2909 3564,2852 3535,2902 3556,2927 3582,2920 3582,2920 z M 3737,2994 3660,2895 3717,3002 3710,3003 3653,2895 3691,3011 3723,3016 3737,2994 3737,2994 z M 2833,2053 2793,2074 2797,2128 2987,2212 2823,2097 2822,2089 2988,2201 2833,2053 2833,2053 z M 2884,1943 2859,1960 2865,1996 2997,2037 2875,1972 2875,1964 2998,2031 2884,1943 2884,1943 z M 2924,2226 2884,2247 2888,2302 2981,2331 2904,2272 2908,2256 2985,2314 2924,2226 2924,2226 z M 2932,2323 2986,2356 2930,2344 2932,2353 2988,2366 2930,2373 2915,2345 2932,2323 2932,2323 z M 2972,2093 2988,2163 2954,2107 2948,2116 2981,2172 2930,2131 2941,2096 2972,2093 2972,2093 z M 3018,2634 3066,2555 3124,2560 3142,2508 3103,2494 3073,2526 3051,2524 3048,2508 3082,2487 3115,2483 3158,2438 3274,2364 3375,2333 3397,2280 3337,2266 3264,2338 3143,2408 3113,2397 3058,2457 3029,2473 3023,2042 3050,1877 3012,1818 3018,2492 3345,2302 3350,2308 3019,2508 3018,2634 3018,2634 z M 2998,2634 2949,2555 2891,2560 2874,2508 2912,2494 2943,2526 2965,2524 2967,2508 2932,2485 2886,2476 2850,2434 2741,2364 2640,2333 2618,2280 2679,2266 2752,2338 2867,2404 2899,2394 2957,2456 2987,2473 2992,2042 2966,1871 3004,1818 2998,2492 2671,2302 2665,2308 2997,2508 2998,2634 2998,2634 z M 2809,2196 2807,2366 2780,2204 2771,2209 2800,2372 2745,2216 2775,2185 2809,2196 2809,2196 z M 2889,2314 2857,2388 2863,2316 2852,2319 2844,2392 2826,2321 2860,2297 2889,2314 2889,2314 z M 2953,2205 2988,2244 2947,2220 2946,2228 2987,2252 2940,2244 2935,2217 2953,2205 2953,2205 z M 3187,2053 3227,2074 3224,2128 3033,2212 3198,2097 3198,2089 3033,2201 3187,2053 3187,2053 z M 3136,1943 3161,1960 3156,1996 3023,2037 3146,1972 3145,1964 3022,2031 3136,1943 3136,1943 z M 3096,2226 3136,2247 3133,2302 3040,2331 3116,2272 3112,2256 3035,2314 3096,2226 3096,2226 z M 3089,2323 3105,2345 3090,2373 3033,2366 3089,2353 3090,2344 3034,2356 3089,2323 3089,2323 z M 3049,2093 3079,2096 3090,2131 3039,2172 3073,2116 3066,2107 3033,2163 3049,2093 3049,2093 z M 3212,2196 3246,2185 3275,2216 3221,2372 3249,2209 3240,2204 3213,2366 3212,2196 3212,2196 z M 3131,2314 3161,2297 3194,2321 3176,2392 3169,2319 3157,2316 3164,2388 3131,2314 3131,2314 z M 3067,2205 3086,2217 3081,2244 3034,2252 3075,2228 3073,2220 3032,2244 3067,2205 3067,2205 z M 2661,2374 2649,2398 2670,2422 2789,2397 2667,2403 2664,2395 2785,2392 2661,2374 2661,2374 z M 2776,2491 2827,2429 2765,2467 2763,2455 2825,2416 2753,2431 2747,2472 2776,2491 2776,2491 z M 2806,2472 2812,2498 2844,2503 2874,2453 2829,2490 2821,2485 2865,2449 2806,2472 2806,2472 z M 3241,2491 3189,2429 3251,2467 3253,2455 3191,2416 3263,2431 3269,2472 3241,2491 3241,2491 z M 3211,2472 3204,2498 3172,2503 3143,2453 3188,2490 3196,2485 3152,2449 3211,2472 3211,2472 z M 3353,2374 3228,2392 3350,2395 3347,2403 3225,2397 3344,2422 3364,2398 3353,2374 3353,2374 z M 2086,2686 2084,2732 2133,2756 2301,2633 2119,2718 2111,2714 2291,2627 2086,2686 2086,2686 z M 2016,2587 2149,2533 2030,2606 2037,2610 2154,2536 2053,2631 2018,2618 2016,2587 2016,2587 z M 2281,2694 2388,2686 2299,2723 2311,2735 2400,2698 2328,2764 2280,2739 2281,2694 2281,2694 z M 2369,2736 2379,2761 2412,2762 2434,2709 2395,2751 2386,2748 2425,2706 2369,2736 2369,2736 z M 2189,2586 2258,2607 2193,2609 2198,2619 2263,2618 2202,2642 2177,2614 2189,2586 2189,2586 z M 2681,2817 2637,2736 2671,2688 2634,2646 2603,2673 2615,2715 2603,2734 2587,2728 2586,2688 2599,2658 2582,2597 2576,2460 2599,2357 2565,2312 2522,2356 2548,2456 2548,2595 2524,2616 2548,2694 2548,2727 2171,2516 2041,2411 1972,2414 2558,2746 2557,2368 2565,2366 2573,2753 2681,2817 2681,2817 z M 2671,2834 2562,2772 2222,2959 2220,2952 2548,2763 1968,2421 1994,2481 2155,2543 2526,2764 2496,2781 2414,2800 2407,2833 2292,2900 2193,2927 2175,2986 2232,2993 2309,2922 2424,2862 2479,2852 2509,2817 2547,2798 2560,2808 2550,2828 2507,2839 2500,2879 2554,2890 2578,2837 2671,2834 2671,2834 z M 2198,2779 2344,2866 2190,2808 2190,2818 2346,2875 2183,2844 2171,2803 2198,2779 2198,2779 z M 2340,2769 2388,2834 2329,2792 2326,2804 2385,2846 2314,2827 2310,2786 2340,2769 2340,2769 z M 2277,2658 2329,2648 2287,2672 2294,2676 2335,2653 2304,2690 2279,2681 2277,2658 2277,2658 z M 2263,2380 2314,2588 2300,2388 2306,2393 2324,2593 2346,2386 2301,2356 2263,2380 2263,2380 z M 2142,2369 2170,2356 2198,2379 2167,2514 2172,2375 2165,2372 2162,2512 2142,2369 2142,2369 z M 2367,2546 2406,2522 2451,2551 2429,2646 2417,2551 2401,2546 2413,2642 2367,2546 2367,2546 z M 2448,2600 2474,2597 2491,2624 2456,2670 2473,2615 2466,2609 2449,2664 2448,2600 2448,2600 z M 2228,2520 2246,2495 2282,2503 2292,2568 2260,2511 2249,2512 2281,2569 2228,2520 2228,2520 z M 2399,2430 2406,2395 2448,2385 2556,2511 2429,2404 2420,2410 2547,2514 2399,2430 2399,2430 z M 2461,2559 2461,2525 2498,2508 2551,2559 2484,2529 2475,2538 2542,2568 2461,2559 2461,2559 z M 2334,2560 2354,2550 2375,2567 2359,2613 2358,2565 2351,2562 2351,2610 2334,2560 2334,2560 z M 2278,2996 2355,2897 2298,3004 2305,3005 2362,2897 2324,3013 2292,3018 2278,2996 2278,2996 z M 2436,2955 2405,2971 2373,2945 2396,2875 2399,2948 2410,2952 2408,2879 2436,2955 2436,2955 z M 2434,2920 2444,2857 2454,2913 2462,2908 2453,2852 2481,2902 2460,2927 2434,2920 2434,2920 z M 2669,2552 2667,2518 2628,2503 2579,2558 2644,2524 2653,2532 2589,2566 2669,2552 2669,2552 z M 2637,2569 2588,2608 2641,2588 2641,2598 2587,2618 2645,2618 2656,2588 2637,2569 2637,2569 z M 2623,2397 2577,2514 2640,2410 2645,2416 2580,2520 2661,2429 2650,2399 2623,2397 2623,2397 z M 2261,3650 2299,3674 2344,3645 2322,3438 2304,3637 2297,3642 2311,3443 2261,3650 2261,3650 z M 2140,3661 2168,3675 2196,3651 2165,3516 2170,3655 2163,3658 2160,3519 2140,3661 2140,3661 z M 2365,3485 2403,3509 2449,3479 2427,3384 2415,3480 2399,3484 2411,3388 2365,3485 2365,3485 z M 2446,3430 2447,3367 2464,3421 2471,3415 2454,3360 2489,3406 2472,3434 2446,3430 2446,3430 z M 2226,3511 2278,3462 2247,3519 2258,3520 2290,3463 2280,3528 2244,3535 2226,3511 2226,3511 z M 2671,3200 2562,3262 2223,3075 2221,3083 2548,3272 1968,3613 2000,3551 2156,3491 2527,3271 2498,3254 2419,3236 2413,3205 2292,3135 2193,3108 2175,3048 2232,3041 2310,3113 2431,3176 2492,3192 2512,3219 2547,3237 2560,3226 2550,3206 2508,3196 2500,3156 2554,3145 2579,3198 2671,3200 2671,3200 z M 2681,3218 2637,3299 2671,3347 2634,3388 2603,3362 2615,3320 2603,3301 2587,3307 2586,3349 2601,3393 2582,3445 2576,3575 2599,3678 2565,3723 2522,3678 2549,3579 2548,3446 2523,3423 2548,3342 2548,3308 2171,3519 2037,3627 1972,3620 2558,3288 2558,3667 2565,3669 2573,3281 2681,3218 2681,3218 z M 2397,3600 2404,3635 2446,3645 2554,3520 2427,3626 2418,3621 2545,3517 2397,3600 2397,3600 z M 2459,3471 2459,3506 2496,3523 2549,3471 2482,3501 2473,3493 2539,3463 2459,3471 2459,3471 z M 2332,3471 2349,3421 2349,3468 2356,3466 2357,3418 2373,3463 2352,3480 2332,3471 2332,3471 z M 2084,3344 2289,3404 2109,3316 2117,3313 2299,3397 2131,3275 2082,3299 2084,3344 2084,3344 z M 2014,3443 2147,3498 2028,3425 2034,3420 2152,3494 2050,3400 2016,3413 2014,3443 2014,3443 z M 2279,3336 2386,3345 2297,3307 2308,3296 2398,3333 2326,3267 2278,3291 2279,3336 2279,3336 z M 2367,3294 2422,3325 2384,3283 2393,3279 2432,3321 2409,3268 2377,3269 2367,3294 2367,3294 z M 2187,3444 2175,3416 2199,3389 2261,3413 2195,3412 2191,3422 2256,3423 2187,3444 2187,3444 z M 2196,3251 2342,3165 2188,3223 2188,3212 2343,3156 2181,3186 2168,3227 2196,3251 2196,3251 z M 2338,3262 2386,3197 2326,3239 2324,3227 2383,3184 2312,3204 2308,3245 2338,3262 2338,3262 z M 2275,3372 2327,3382 2285,3359 2292,3354 2333,3377 2302,3341 2277,3350 2275,3372 2275,3372 z M 2625,3639 2578,3523 2642,3626 2646,3620 2581,3517 2662,3608 2651,3637 2625,3639 2625,3639 z M 2668,3482 2666,3516 2628,3531 2579,3476 2644,3510 2653,3502 2589,3468 2668,3482 2668,3482 z M 2637,3465 2588,3425 2641,3445 2641,3436 2587,3415 2645,3416 2656,3446 2637,3465 2637,3465 z M 2436,3079 2405,3063 2373,3089 2396,3159 2399,3086 2410,3082 2408,3155 2436,3079 2436,3079 z M 2434,3114 2444,3177 2454,3120 2462,3125 2453,3182 2481,3132 2460,3107 2434,3114 2434,3114 z M 2279,3040 2356,3139 2299,3032 2307,3031 2363,3139 2325,3023 2294,3018 2279,3040 2279,3040 z M 3017,3387 3010,3383 3019,3258 3023,3196 3086,3157 3093,3168 3050,3236 3074,3262 3045,3263 3060,3278 3059,3311 3038,3297 3017,3387 3017,3387 z M 2998,3387 2977,3297 2956,3311 2954,3278 2970,3263 2940,3262 2965,3236 2921,3168 2928,3157 2992,3196 2996,3258 3005,3383 2998,3387 2998,3387 z M 3333,3194 3326,3199 3223,3128 3170,3094 3169,3020 3181,3019 3219,3091 3253,3082 3240,3108 3261,3103 3289,3120 3266,3131 3333,3194 3333,3194 z M 3323,3211 3235,3184 3237,3210 3208,3194 3202,3173 3186,3198 3176,3164 3095,3168 3090,3156 3155,3121 3211,3149 3324,3203 3323,3211 3323,3211 z M 2692,3209 2692,3202 2805,3147 2860,3119 2926,3155 2920,3166 2839,3163 2829,3197 2813,3172 2808,3193 2779,3208 2780,3183 2692,3209 2692,3209 z M 2683,3193 2750,3130 2727,3119 2755,3101 2776,3107 2762,3081 2797,3089 2834,3017 2847,3018 2845,3093 2793,3127 2689,3197 2683,3193 2683,3193 z M 2684,2840 2690,2835 2794,2906 2846,2940 2848,3015 2835,3015 2798,2944 2763,2952 2777,2926 2756,2932 2728,2914 2751,2903 2684,2840 2684,2840 z M 2693,2823 2781,2850 2779,2824 2809,2840 2814,2861 2830,2836 2840,2870 2921,2867 2927,2878 2861,2914 2805,2885 2693,2831 2693,2823 2693,2823 z M 3000,2647 3007,2651 2997,2776 2994,2838 2930,2877 2923,2866 2967,2798 2942,2772 2971,2771 2956,2756 2957,2723 2978,2737 3000,2647 3000,2647 z M 3018,2647 3040,2737 3061,2723 3062,2756 3047,2771 3076,2772 3051,2798 3095,2866 3088,2877 3024,2838 3021,2776 3011,2651 3018,2647 3018,2647 z M 3324,2825 3325,2833 3212,2887 3156,2915 3090,2879 3096,2868 3177,2872 3187,2837 3203,2862 3208,2841 3238,2826 3236,2851 3324,2825 3324,2825 z M 3333,2841 3267,2904 3289,2915 3261,2933 3241,2927 3254,2953 3219,2945 3182,3017 3169,3016 3171,2941 3224,2907 3327,2837 3333,2841 3333,2841 z M 3075,3209 3100,3177 3143,3172 3110,3197 3075,3209 3075,3209 z M 2875,3171 2915,3177 2941,3211 2903,3195 2875,3171 2875,3171 z M 3208,3055 3215,3019 3210,2978 3193,3018 3208,3055 3208,3055 z M 2808,2979 2801,3015 2806,3056 2823,3017 2808,2979 2808,2979 z M 2941,2825 2916,2857 2873,2862 2906,2837 2941,2825 2941,2825 z M 3141,2863 3101,2857 3075,2823 3113,2839 3141,2863 3141,2863 z M 3008,3192 3022,3185 3021,3114 2998,3114 2996,3182 3008,3192 3008,3192 z M 3159,3104 3145,3110 3087,3075 3099,3055 3160,3089 3159,3104 3159,3104 z M 3159,2930 3157,2945 3098,2977 3086,2958 3147,2921 3159,2930 3159,2930 z M 3008,2843 2995,2849 2996,2920 3019,2920 3020,2852 3008,2843 3008,2843 z M 2857,2930 2871,2924 2929,2959 2918,2979 2856,2945 2857,2930 2857,2930 z M 2857,3104 2859,3089 2919,3057 2930,3077 2869,3113 2857,3104 2857,3104 z M 3216,3376 3162,3343 3161,3316 3200,3297 3221,3314 3216,3376 3216,3376 z M 3146,3332 3072,3281 3098,3275 3146,3299 3146,3332 z M 3122,3355 3067,3318 3067,3288 3137,3334 3122,3355 3122,3355 z M 3125,3432 3117,3363 3076,3336 3093,3365 3125,3432 3125,3432 z M 3130,3364 3152,3345 3220,3384 3228,3310 3250,3290 3323,3330 3327,3354 3248,3400 3297,3444 3294,3506 3235,3484 3220,3417 3158,3454 3129,3436 3130,3364 3130,3364 z M 3212,3293 3205,3204 3186,3223 3184,3277 3212,3293 3212,3293 z M 3244,3285 3239,3218 3213,3203 3219,3287 3244,3285 3244,3285 z M 3315,3315 3247,3224 3253,3276 3315,3315 3315,3315 z M 3423,3016 3367,3047 3344,3034 3346,2991 3372,2982 3423,3016 3423,3016 z M 3350,3055 3269,3094 3276,3068 3321,3039 3350,3055 3350,3055 z M 3358,3087 3298,3116 3272,3101 3347,3064 3358,3087 3358,3087 z M 3426,3124 3352,3118 3319,3118 3362,3096 3426,3124 3426,3124 z M 3370,3085 3364,3056 3432,3017 3371,2973 3365,2944 3437,2901 3459,2910 3460,3001 3523,2980 3574,3014 3526,3054 3460,3034 3461,3106 3431,3122 3370,3085 3370,3085 z M 3349,2978 3321,2995 3276,2966 3268,2940 3349,2978 3349,2978 z M 3358,2947 3347,2970 3272,2933 3298,2918 3358,2947 3358,2947 z M 3419,2900 3306,2914 3355,2934 3419,2900 3419,2900 z M 3215,2657 3213,2721 3191,2735 3154,2711 3159,2684 3215,2657 3215,2657 z M 3212,2741 3183,2757 3186,2810 3205,2830 3212,2741 3212,2741 z M 3244,2749 3218,2747 3213,2831 3239,2816 3244,2749 3244,2749 z M 3310,2708 3253,2750 3251,2799 3267,2770 3310,2708 3310,2708 z M 3248,2738 3220,2729 3220,2650 3152,2681 3123,2671 3122,2587 3140,2573 3220,2617 3234,2553 3289,2525 3299,2587 3249,2634 3312,2669 3310,2703 3248,2738 3248,2738 z M 3145,2702 3145,2735 3098,2760 3071,2753 3145,2702 3145,2702 z M 3122,2679 3136,2700 3067,2746 3067,2717 3122,2679 3122,2679 z M 3112,2603 3110,2676 3068,2707 3112,2603 3112,2603 z M 2800,2658 2854,2691 2855,2718 2817,2738 2796,2720 2800,2658 2800,2658 z M 2871,2702 2945,2753 2918,2760 2871,2735 2871,2702 z M 2894,2679 2949,2717 2949,2746 2879,2700 2894,2679 2894,2679 z M 2892,2602 2899,2671 2940,2698 2924,2669 2892,2602 2892,2602 z M 2886,2670 2865,2690 2796,2650 2789,2724 2766,2744 2693,2704 2690,2680 2768,2634 2719,2590 2722,2528 2782,2550 2797,2617 2858,2580 2887,2598 2886,2670 2886,2670 z M 2804,2741 2811,2830 2830,2811 2833,2757 2804,2741 2804,2741 z M 2772,2749 2777,2816 2803,2831 2798,2747 2772,2749 2772,2749 z M 2702,2720 2770,2810 2763,2758 2702,2720 2702,2720 z M 2593,3018 2649,2988 2672,3000 2670,3043 2644,3053 2593,3018 2593,3018 z M 2667,2979 2748,2940 2740,2966 2695,2995 2667,2979 2667,2979 z M 2658,2947 2718,2918 2744,2933 2669,2970 2658,2947 2658,2947 z M 2590,2910 2665,2916 2698,2916 2654,2938 2590,2910 2590,2910 z M 2646,2949 2653,2978 2584,3017 2645,3061 2651,3090 2579,3134 2557,3124 2556,3034 2493,3054 2442,3020 2491,2980 2556,3000 2555,2928 2585,2912 2646,2949 2646,2949 z M 2667,3056 2696,3039 2740,3068 2748,3094 2667,3056 2667,3056 z M 2658,3087 2669,3064 2744,3102 2718,3116 2658,3087 2658,3087 z M 2597,3134 2710,3120 2662,3100 2597,3134 2597,3134 z M 2801,3377 2803,3313 2825,3299 2862,3323 2857,3350 2801,3377 2801,3377 z M 2804,3294 2833,3277 2830,3224 2811,3204 2804,3294 2804,3294 z M 2773,3285 2798,3287 2803,3204 2777,3218 2773,3285 2773,3285 z M 2707,3326 2763,3284 2766,3236 2749,3264 2707,3326 2707,3326 z M 2769,3297 2796,3305 2796,3384 2865,3353 2893,3363 2895,3447 2876,3461 2796,3417 2783,3481 2727,3509 2717,3447 2767,3400 2705,3365 2706,3331 2769,3297 2769,3297 z M 2871,3332 2871,3299 2918,3275 2945,3281 2871,3332 2871,3332 z M 2894,3355 2880,3334 2949,3288 2949,3318 2894,3355 2894,3355 z M 2904,3431 2907,3358 2949,3327 2904,3431 2904,3431 z M 3008,3111 3031,3075 2985,3075 3008,3111 3008,3111 z M 3090,3064 3070,3026 3047,3066 3090,3064 3090,3064 z M 3090,2970 3047,2968 3070,3008 3090,2970 3090,2970 z M 3008,2923 2985,2959 3031,2959 3008,2923 3008,2923 z M 2926,2970 2947,3008 2970,2968 2926,2970 2926,2970 z M 2926,3064 2970,3066 2947,3026 2926,3064 2926,3064 z M 3030,3162 3038,3144 3099,3107 3127,3102 3095,3092 3030,3131 3030,3162 z M 2893,3108 2913,3106 2975,3141 2994,3162 2986,3130 2921,3093 2893,3108 2893,3108 z M 2872,2963 2883,2979 2885,3050 2875,3077 2899,3054 2899,2979 2872,2963 2872,2963 z M 2986,2872 2978,2890 2917,2927 2889,2932 2921,2942 2986,2903 2986,2872 2986,2872 z M 3123,2926 3104,2928 3041,2893 3023,2872 3030,2904 3096,2941 3123,2926 3123,2926 z M 3145,3071 3133,3055 3132,2984 3141,2957 3117,2980 3117,3055 3145,3071 3145,3071 z M 2993,3123 2992,3112 2937,3078 2926,3084 2993,3123 2993,3123 z M 3092,3083 3082,3078 3025,3109 3025,3122 3092,3083 3092,3083 z M 3108,2977 3098,2983 3096,3048 3107,3055 3108,2977 3108,2977 z M 3024,2911 3024,2922 3079,2956 3090,2950 3024,2911 3024,2911 z M 2924,2951 2934,2956 2991,2926 2991,2913 2924,2951 2924,2951 z M 2908,3057 2918,3051 2920,2986 2909,2979 2908,3057 2908,3057 z M 2990,3068 2971,3058 3002,3028 2990,3068 2990,3068 z M 3043,3059 3025,3069 3014,3028 3043,3059 3043,3059 z M 3062,3007 3062,3028 3021,3017 3062,3007 3062,3007 z M 3027,2966 3045,2976 3015,3006 3027,2966 3027,2966 z M 2973,2975 2991,2965 3002,3006 2973,2975 2973,2975 z M 2954,3027 2954,3006 2995,3017 2954,3027"
       style="fill:#789dff;fill-opacity:1;fill-rule:evenodd;stroke:none"
       id="path16"
       inkscape:connector-curvature="0"
       transform="matrix(0.4269,0,0,-0.4269,-817.7,1825)" />
  </g>
</svg>
